<?xml version="1.0" standalone="no"?>
<!DOCTYPE svg PUBLIC "-//W3C//DTD SVG 20010904//EN"
 "http://www.w3.org/TR/2001/REC-SVG-20010904/DTD/svg10.dtd">
<svg version="1.0" xmlns="http://www.w3.org/2000/svg"
 width="605.000000pt" height="605.000000pt" viewBox="0 0 605.000000 605.000000"
 preserveAspectRatio="xMidYMid meet">
<metadata>
Created by potrace 1.11, written by Peter Selinger 2001-2013
</metadata>
<g transform="translate(0.000000,605.000000) scale(0.100000,-0.100000)"
fill="#000000" stroke="none">
<path d="M3503 5413 c4 -58 7 -159 7 -225 l0 -118 65 0 65 0 0 133 c0 74 -3
175 -6 225 l-7 92 -65 0 -65 0 6 -107z"/>
<path d="M2797 5187 c-26 -23 -47 -47 -47 -52 0 -6 30 -85 66 -175 36 -91 70
-176 75 -189 l10 -24 38 37 c72 71 73 62 -9 265 -40 100 -75 181 -79 181 -3
-1 -27 -20 -54 -43z"/>
<path d="M4276 5222 c-2 -4 -34 -87 -71 -185 l-66 -177 47 -55 c25 -30 49 -55
53 -55 7 0 151 380 151 396 -1 9 -93 84 -103 84 -3 0 -8 -4 -11 -8z"/>
<path d="M2535 4304 l-89 -416 -103 -69 c-636 -427 -949 -1145 -822 -1888 37
-221 134 -449 269 -634 l68 -94 -201 -6 c-227 -6 -351 -23 -547 -71 -310 -77
-563 -215 -675 -367 -40 -54 -83 -144 -74 -153 2 -3 774 -5 1714 -6 1676 -2
1713 -2 1842 18 252 39 444 98 648 197 447 217 730 555 846 1007 86 340 57
770 -77 1109 -222 564 -712 995 -1310 1149 -178 46 -316 62 -546 64 l-208 1
-315 285 c-173 157 -319 286 -323 288 -4 1 -48 -185 -97 -414z m1076 -467 c48
-32 96 -132 110 -230 25 -174 -45 -364 -148 -398 -71 -23 -150 36 -194 147
-20 51 -23 76 -23 179 0 144 21 211 88 281 38 39 47 44 88 44 30 0 56 -7 79
-23z m530 0 c48 -32 96 -133 109 -227 24 -171 -40 -356 -137 -397 -45 -18 -85
-9 -129 30 -134 117 -139 443 -9 575 37 37 48 42 87 42 30 0 56 -7 79 -23z"/>
<path d="M4250 4408 c-124 -104 -226 -193 -228 -197 -1 -3 30 -15 70 -25 100
-25 281 -96 396 -156 53 -27 98 -48 100 -46 4 5 -96 576 -106 598 -6 13 -51
-21 -232 -174z"/>
</g>
</svg>
