<?xml version="1.0" standalone="no"?>
<!DOCTYPE svg PUBLIC "-//W3C//DTD SVG 20010904//EN"
 "http://www.w3.org/TR/2001/REC-SVG-20010904/DTD/svg10.dtd">
<svg version="1.0" xmlns="http://www.w3.org/2000/svg"
 width="600.000000pt" height="600.000000pt" viewBox="0 0 600.000000 600.000000"
 preserveAspectRatio="xMidYMid meet">
<metadata>
Created by potrace 1.11, written by Peter Selinger 2001-2013
</metadata>
<g transform="translate(0.000000,600.000000) scale(0.100000,-0.100000)"
fill="#000000" stroke="none">
<path d="M2800 5994 c-19 -2 -82 -9 -140 -15 -227 -24 -505 -91 -732 -178
-787 -300 -1429 -942 -1729 -1729 -84 -221 -148 -481 -180 -732 -18 -138 -18
-542 0 -680 88 -695 381 -1298 862 -1779 481 -481 1084 -774 1779 -862 138
-18 542 -18 680 0 695 88 1298 381 1779 862 481 481 774 1084 862 1779 18 138
18 542 0 680 -88 695 -381 1298 -862 1779 -472 472 -1060 762 -1736 856 -102
15 -508 28 -583 19z m455 -334 c842 -77 1598 -558 2045 -1300 193 -321 325
-725 360 -1105 95 -1039 -401 -2013 -1300 -2555 -321 -193 -725 -325 -1105
-360 -1039 -95 -2013 401 -2555 1300 -193 321 -325 725 -360 1105 -95 1039
401 2013 1300 2555 312 188 725 325 1085 359 130 12 402 13 530 1z"/>
<path d="M3706 5089 c-77 -19 -134 -65 -166 -134 -11 -24 -107 -519 -235
-1205 -119 -641 -218 -1171 -221 -1178 -3 -11 -14 -8 -47 11 -52 30 -165 71
-260 95 -112 27 -427 24 -563 -6 -417 -91 -766 -330 -916 -627 -175 -345 -39
-715 326 -886 160 -75 327 -105 535 -96 464 19 903 246 1116 577 55 84 79 140
104 242 16 63 461 2425 461 2445 0 2 45 -19 101 -48 288 -151 503 -437 634
-844 58 -181 89 -326 129 -608 36 -250 44 -271 100 -265 23 2 34 12 50 43 66
127 3 922 -109 1365 -135 535 -369 904 -670 1058 -111 56 -279 84 -369 61z"/>
</g>
</svg>
